<?xml version="1.0" encoding="utf-8"?>
<!-- Generator: Adobe Illustrator 27.5.0, SVG Export Plug-In . SVG Version: 6.00 Build 0)  -->
<svg version="1.1" id="Capa_1" xmlns="http://www.w3.org/2000/svg" xmlns:xlink="http://www.w3.org/1999/xlink" x="0px" y="0px"
	 viewBox="0 0 2529.6 1022.2" style="enable-background:new 0 0 2529.6 1022.2;" xml:space="preserve">
<style type="text/css">
	.st0{fill:#40C9FF;}
	.st1{fill:#00B7FF;}
	.st2{fill:#4D95D9;}
	.st3{fill:#B9712A;}
	.st4{fill:#F38F22;}
	.st5{fill:#D57E1E;}
	.st6{fill:#FBD194;}
	.st7{fill:#FBCC8D;}
	.st8{fill:#373737;}
	.st9{fill:#F1EAE1;}
	.st10{fill:#D08421;}
	.st11{fill:#8B5A18;}
	.st12{fill:#2AF37A;}
	.st13{fill:#00F272;}
	.st14{fill:#00C761;}
	.st15{fill:#00852F;}
	.st16{fill:#8AFFB7;}
	.st17{fill:#2A2B2C;}
	.st18{fill:#20C768;}
	.st19{fill:#95A2AB;}
	.st20{fill:#8C45B5;}
	.st21{fill:#F253AE;}
	.st22{fill:#F22732;}
	.st23{fill:#FF9300;}
	.st24{fill:#F7DC41;}
	.st25{fill:#1675CD;}
	.st26{fill:#FFFFFF;}
	.st27{fill:#2E2F30;}
	.st28{fill:#EC696B;}
	.st29{fill:#94A1AA;}
	.st30{fill:#7A848B;}
	.st31{fill:#B92729;}
	.st32{fill:#9F2022;}
	.st33{fill:#B42025;}
	.st34{fill:#911A1D;}
	.st35{fill:#FF7D82;}
	.st36{fill:#8B2124;}
	.st37{fill:#F7E072;}
	.st38{fill:#8E8001;}
	.st39{fill:#A49230;}
	.st40{fill:#8C802D;}
	.st41{fill:#E9CE16;}
	.st42{fill:#343637;}
	.st43{fill:#ECD865;}
	.st44{fill:#A69430;}
	.st45{fill:#91802C;}
	.st46{fill:#F0DC64;}
	.st47{fill:#71641F;}
	.st48{fill:#8F802C;}
	.st49{fill:#F87AC1;}
	.st50{fill:#E4439F;}
	.st51{fill:#FFA9D9;}
	.st52{fill:#FFC1E5;}
	.st53{fill:#F85DB5;}
	.st54{fill:#3581BC;}
</style>
<g>
	<path class="st0" d="M1256,761.1c-28.7,4.9-60.6,8.7-84.9-7.3c-24.3-16.1-28.6-60.6-1.3-70.7c-10.9-1-16.3-15.9-10.7-25.3
		c6.5-9.1,18.1-13.1,28.9-10.1c-9.9-23.8-4.5-51.2,13.6-69.5c18.7-17.7,46.2-22.4,69.8-12c1.1-49.5,60.8-87.5,106.1-67.5
		c26.4-134,218.1-90.2,206.2-13.3c9-13.2,23.2-22,39.1-24.1c-4.5-25.2,4.1-51,22.9-68.5c30.5-28.3,78.2-26.5,106.5,4l0,0
		c-27.4-95.8,147.6-196.9,202.4-58.8c7.3-14,17.1-26.5,29-37c53.4-47.2,135-42.2,182.3,11.2c19.4-30.8,55.7-52.7,91.7-47.4
		c36,5.4,66.1,43.3,56.4,78.4c19.9-5,41.1-0.9,57.7,11.1c31,22.5,37.9,65.9,15.4,96.9c35.5-6.9,92.5,20.7,80.4,70.1
		c0,0,87.4,11.4,53.5,99.9L1256,761.1z"/>
	<path class="st1" d="M2433.6,542.3c20.5-49.7-63.4-113-103.9-66.2c63.4-70.2-51.9-178.8-116.3-103.2c-2-24.4-30.7-40.1-54.6-34.9
		c-23.9,5.1-42,25.4-52.5,47.5c3.5-16.3-14.6-28.1-29.9-34.8c-11.1-5.8-23.3-9.2-35.8-10c-28.7,0.2-49.4,26.5-65.6,50.3
		c-24.4-28.4-63.1-40-99.1-29.7c-62.1,19.3-69.4,81-69.4,81c-15.3-8.2-32.6-11.7-49.9-10.1c-48.7,4.5-84.6,47.6-80.1,96.3
		c-14-13.2-37.3-11.3-53.5-0.9c-16.2,10.4-26.9,27.2-37,43.5c3.8-9.1,1.9-19.6-5-26.8c-9.5-9.9-25.2-10.2-35.1-0.7
		c4.9-23.9-17.8-47.4-42.2-48.7c-24.3-1.3-47.1,14.9-59.8,35.6c-12.7,20.8-17.3,45.4-20.3,69.6c-8.1-29.7-43.4-47.4-73.2-39.5
		c-29.7,7.9-51,37.6-52.8,68.3c-10.7-17.7-35.8-23-54.9-15.1c-18.9,9-33.2,25.6-39.3,45.6c-5.6,13.9-6.3,29.3-2.2,43.7
		c4.5,14.5,17.2,25,32.3,26.6c-15.9,12.4-29.1,31.8-30.1,51c1.4,27.7,20.3,48.6,44.6,58.6c-14.1,5.6-23.6,19.1-24,34.4
		c-0.1,15,4.8,29.6,13.9,41.5c11.3,17.6,29.5,29.7,50.1,33.3c20.5,2.4,43.2-9.4,48.8-29.3c10,29.1,38.5,52,69.3,51.6
		s60-27,59.9-57.7c9.4,22.5,20.4,45.1,38.3,61.6c17.9,16.6,44.1,26,67.2,18.2s38.6-36.6,27.5-58.2c12.1,6.5,27.1,1.9,33.6-10.2
		c4.7-8.7,3.7-19.4-2.4-27.1c14.2,13,29,26.3,47.4,31.9c18.4,5.6,41.3,1.2,51.2-15.3c8.8,48.1,54.9,80,103,71.2
		c17.1-3.1,32.8-11.2,45.4-23.2c0,0,23.7,57.4,88.6,59.3c37.5,0.3,71.6-21.3,87.5-55.2c21.9,18.6,49,38.3,76.7,30.8
		c11.8-4.1,22.6-10.7,31.8-19.3c12.9-10.5,27.1-26.8,19.4-41.5c16.1,18.4,39,33.1,63.4,31.6s47.8-24.3,43.2-48.3
		c82.4,55.5,164.2-80.1,84.3-130.7c51.6,34.2,115.3-49.3,82.2-91.7c0,0,84.9-5.7,70.3-91s-93.8-62.8-93.8-62.8"/>
</g>
<g>
	<path class="st0" d="M12.4,453.5c-32.7-54.2,18.3-61.2,18.3-61.2c-11.6-28.6,20.3-50.2,42.2-49.2c-16.2-16.7-15.9-43.4,0.8-59.6
		c8.9-8.7,21.3-13,33.7-11.7c-8.9-20.3,5.9-45.7,27.1-52.1c21.2-6.4,44.9,3.6,59.2,20.4c23.7-36.3,72.3-46.4,108.6-22.7
		c8,5.3,15,11.9,20.6,19.7c20.9-87.8,134.9-42.3,126.8,17.6l0,0c14.3-20.8,42.8-26,63.6-11.7c12.8,8.8,20.2,23.6,19.8,39.1
		c9.7-0.1,19,3.9,25.6,11.1c-13.9-45.2,97.5-88.2,125.1-10c25.5-16,64.7,1.6,69.7,31.3c13.3-8.3,30.2-7.9,43,1.1
		c12.5,9.4,18.1,25.4,14.2,40.6c6.2-2.7,13.5-1.3,18.2,3.6c4.2,5.2,2.2,14.6-4.2,16.1c17.3,3.7,18.6,30.8,5.4,42.6
		c-13.2,11.8-32.7,12.2-50.4,11.8L12.4,453.5z"/>
	<path class="st1" d="M52.8,401.9c-16.6-28.1,28.2-73.4,56.6-48.8c-44.3-36.7,15.6-112,60.9-72.2c-0.9-14.8,15-26.8,29.8-25.8
		c14.8,1,27.5,11.6,35.7,24c-3.5-9.5,6.3-18.2,14.9-23.5c6.2-4.5,13.2-7.6,20.6-9.1c17.3-2.4,32,11.6,43.8,24.5
		c12.2-19.2,34.4-29.6,57-26.5c39,6.2,48.8,42.6,48.8,42.6c8.5-6.3,18.6-9.9,29.1-10.5c29.7-1.6,55,21.2,56.6,50.9
		c7.2-9.1,21.4-10,32-5.2s18.5,14,26.1,22.9c-3.1-5.1-2.8-11.6,0.7-16.5c4.8-6.8,14.3-8.4,21-3.5c-5-13.9,6.6-30,21.1-33
		c14.5-2.9,29.6,4.8,39.1,16.2c9.5,11.4,14.4,25.8,18.3,40.1c2.3-18.5,22-32.3,40.5-30.1c18.6,2.1,34,18.1,37.7,36.5
		c4.9-11.6,19.5-16.9,31.7-13.9c12.1,3.8,22.2,12.5,27.6,24c4.6,7.9,6.4,17,5.2,26c-1.4,9.1-8.2,16.5-17.1,18.8
		c10.6,6.1,20.3,16.5,22.5,28c1.6,16.8-7.9,31-21.7,39.2c9,2.1,15.8,9.4,17.4,18.5c1.4,9-0.3,18.2-4.7,26.1
		c-5.2,11.6-15.1,20.5-27.2,24.4c-12.1,3.3-26.8-1.9-31.9-13.4c-3.5,18.4-18.6,34.6-37.1,37.1c-18.5,2.4-38.4-11-41-29.5
		c-3.7,14.3-8.3,28.9-17.6,40.4s-24.2,19.5-38.8,16.8c-14.5-2.7-26.4-18.6-21.6-32.6c-6.7,5-16.1,3.5-21.1-3.2
		c-3.6-4.8-3.9-11.3-0.9-16.5c-7.4,9-15.1,18.3-25.7,23.3c-10.5,5-24.7,4.3-32.1-4.7c-1.1,29.7-26,52.9-55.7,51.8
		c-10.5-0.4-20.7-3.9-29.3-10c0,0-9.2,36.6-48.1,43.4c-22.5,3.5-44.9-6.5-57.4-25.6c-11.6,13.1-26.1,27.3-43.4,25.2
		c-7.5-1.5-14.5-4.5-20.8-8.8c-8.7-5.2-18.6-13.7-15.3-23.3c-8.1,12.5-20.5,23.3-35.3,24.5c-14.8,1.3-30.9-10.4-30.2-25.3
		c-44.7,40.5-105.7-33.8-62.1-71.2c-28,25.1-73.6-19.6-57.4-47.9c0,0-51.5,4-50.2-48.5s50.9-45.9,50.9-45.9"/>
</g>
<g>
	<path class="st0" d="M1129.6,844.5L82.9,644.9c-28.1-73.4,44.4-82.8,44.4-82.8c-10-40.9,37.2-63.8,66.7-58.1
		c-18.7-25.7-13-61.7,12.8-80.4c13.8-10,31.3-13.4,47.8-9.2c-8-29.1,16.9-60.6,46.8-65s60,13.7,76,39.3
		c39.2-44.3,106.8-48.5,151.1-9.3c9.8,8.7,17.9,19.1,24,30.7C598,295.6,743,379.5,720.3,458.9l0,0c23.5-25.3,63-26.7,88.3-3.3
		c15.6,14.5,22.7,35.8,19,56.7c13.1,1.8,24.9,9,32.4,20c-9.9-63.7,149.1-100,170.9,11c37.5-16.6,87.1,14.9,88,56
		c0,0,63.4-10.1,75.3,73.4c6.4,43.9-16.5,68.9-16.5,68.9S1238,819.2,1129.6,844.5z"/>
	<path class="st1" d="M155.2,579.5c-17-41.2,52.5-93.6,86.1-54.8c-52.6-58.2,43-148.2,96.4-85.6c1.7-20.2,25.5-33.2,45.3-29
		c19.8,4.3,34.8,21.1,43.6,39.4c-2.9-13.5,12.1-23.3,24.8-28.8c9.2-4.8,19.3-7.6,29.7-8.3c23.8,0.2,41,22,54.3,41.7
		c20.2-23.6,52.3-33.2,82.2-24.6c51.5,16,57.5,67.1,57.5,67.1c12.7-6.8,27.1-9.7,41.4-8.4c40.4,3.7,70.1,39.4,66.4,79.8
		c11.6-10.9,30.9-9.3,44.3-0.7c13.4,8.6,22.3,22.5,30.7,36c-3.2-7.6-1.5-16.3,4.1-22.2c7.9-8.2,20.9-8.5,29.1-0.6
		c-4.1-19.8,14.8-39.3,35-40.4c20.2-1.1,39,12.3,49.6,29.5s14.3,37.7,16.8,57.7c6.7-24.6,36-39.3,60.7-32.8s42.3,31.2,43.8,56.6
		c8.9-14.7,29.7-19,45.5-12.5c15.7,7.5,27.5,21.2,32.6,37.8c4.6,11.5,5.3,24.3,1.8,36.2c-3.7,12-14.3,20.7-26.8,22.1
		c13.2,10.3,24.1,26.3,24.9,42.3c-1.2,23-16.8,40.3-37,48.6c11.7,4.7,19.5,15.9,19.9,28.5c0.1,12.4-4,24.5-11.5,34.4
		c-9.4,14.6-24.4,24.7-41.5,27.6c-17,2-35.8-7.8-40.5-24.3c-8.3,24.1-31.9,43.1-57.4,42.8s-49.8-22.4-49.6-47.9
		c-7.8,18.7-16.9,37.4-31.7,51.1c-14.8,13.7-36.6,21.6-55.7,15.1c-19.1-6.5-32-30.3-22.8-48.3c-10,5.4-22.5,1.6-27.9-8.4
		c-3.9-7.2-3.1-16.1,2-22.5c-11.8,10.7-24,21.8-39.3,26.5c-15.2,4.7-34.3,1-42.5-12.6c-7.3,39.9-45.5,66.3-85.4,59
		c-14.1-2.6-27.2-9.3-37.6-19.2c0,0-19.6,47.6-73.5,49.2c-31,0.3-59.4-17.6-72.5-45.8c-18.2,15.4-40.6,31.8-63.6,25.6
		c-9.8-3.4-18.8-8.9-26.3-16c-10.7-8.7-22.5-22.2-16.1-34.4c-13.3,15.3-32.3,27.4-52.5,26.2s-39.6-20.2-35.8-40.1
		c-68.3,46-136.2-66.4-69.9-108.4c-42.8,28.3-95.6-40.9-68.2-76c0,0-70.4-4.8-58.3-75.4s77.7-52,77.7-52"/>
</g>
<path class="st2" d="M595.4,298.3c-7.3,10.8-21.2,25.7-24.5,44.4L595.4,298.3z"/>
<path class="st3" d="M574.4,343.3l-7.1-1.3c2.8-15.6,12.3-28.4,19.9-38.6c1.9-2.6,3.7-5,5.2-7.2l6,4.1c-1.6,2.3-3.4,4.8-5.4,7.5
	C585.8,317.4,576.9,329.4,574.4,343.3L574.4,343.3z"/>
<path class="st3" d="M530.9,324.4c-0.8-0.1-1.6-0.5-2.2-1c-0.5-0.5-11.8-11.9-9-23.1c1.5-6.3,7-11,16.2-13.9
	c1.9-0.6,3.9,0.5,4.5,2.4s-0.5,3.9-2.3,4.5c-6.6,2.1-10.5,5-11.4,8.7c-0.4,3.7,0.5,7.5,2.7,10.6c1.3,2,2.7,3.9,4.4,5.6
	c1.4,1.4,1.4,3.7,0,5.1C533.1,324.2,532,324.5,530.9,324.4L530.9,324.4z"/>
<path class="st3" d="M473.5,166.4c-1.3-0.1-2.4-1-2.9-2.1c-24.6-55.4-30.7-88.5-32.2-121.1c-0.1-2,1.5-3.7,3.5-3.8s3.7,1.5,3.8,3.5
	c1.5,32.7,7.3,63.9,31.5,118.5c0.8,1.8,0,4-1.8,4.8C474.8,166.4,474.2,166.5,473.5,166.4L473.5,166.4L473.5,166.4z"/>
<path class="st3" d="M630.6,126.3c-2-0.2-3.5-2-3.2-4c0.1-0.6,0.3-1.2,0.6-1.7c5.5-8,9.8-16.8,12.6-26.1c5.1-16.6,9.2-41.1-0.5-63.5
	c-0.8-1.9,0-4,1.9-4.8s4,0,4.8,1.9c8.4,19.3,8.7,43,0.8,68.5c-3,10-7.6,19.5-13.6,28.1C633.2,125.8,631.9,126.4,630.6,126.3
	L630.6,126.3z"/>
<path class="st3" d="M528.9,323c-11.9-16-9.6-25.2-5.6-30.2c7.7-9.5,27.5-9.1,41.2-2.8l-2.3,4.9c-12.8-6-29.4-5.3-34.8,1.3
	c-5.1,6.3,0.3,16.3,5.7,23.6L528.9,323z"/>
<path class="st3" d="M534.2,318.5c0,0-19.2-1.4-24.2,9.5s12.1,0,26.4-3.8C538.9,323.5,537.2,320.3,534.2,318.5z"/>
<path class="st3" d="M586.6,345.4c2.7,6.4-19,1.1-19.8-2.2C566.1,339.8,581.9,332,586.6,345.4z"/>
<path class="st4" d="M470.4,172.7c9.5,75.8,77.1,143,106.9,139.1c34.2-4.4,78.6-85.8,69.1-161.6S574.4,6.6,539.5,11.1
	C506,15.4,460.9,96.9,470.4,172.7z"/>
<path class="st5" d="M563.9,309c-12.7-6.6-24.2-15.1-34.2-25.3c-9.9-10.3-18.4-21.8-25.2-34.4c-6.8-12.5-12.3-25.8-16.2-39.5
	c-2-6.9-3.7-13.8-5-20.8s-2.3-14.1-3-21.2c-1.4-14.2-1.5-28.5-0.3-42.7c1.1-14.2,3.7-28.3,7.7-42c3.9-13.7,9.7-26.9,17.1-39.1
	s17.1-22.9,28.7-31.3C522,21.2,512.4,32,505.1,44.2c-7.3,12.2-12.9,25.3-16.8,39c-2,6.8-3.6,13.8-4.8,20.7c-1.2,7-2.1,14-2.7,21.1
	c-1.1,14.2-1,28.4,0.4,42.5s4,28.1,8,41.8c3.9,13.7,9.3,26.9,16,39.4c6.7,12.5,15.1,24.1,24.9,34.4C540,293.5,551.4,302.2,563.9,309
	L563.9,309z"/>
<path class="st5" d="M546.9,11.1c98.4,57.1,120.2,215.2,42,297.4C662.1,226.1,643.8,73.4,546.9,11.1z"/>
<path class="st6" d="M478.5,92c46.6-15.5,92.9-24.7,139.2-20.2c-6.3-10.4-13.6-20.1-21.9-28.9c-32.1-8.1-66.9-2.6-102.5,13.9
	C487.2,68,482.3,79.8,478.5,92z"/>
<path class="st6" d="M526.8,283.8c35.6,3.6,66.6,0.4,94.3-11.6c6.4-11.3,11.6-23.1,15.6-35.4c-42.4,16.7-87.4,20.1-134.1,16.7
	C509.7,264.3,517.8,274.5,526.8,283.8L526.8,283.8z"/>
<path class="st7" d="M634.8,200.5c-1.4-0.1-2.4-1.3-2.4-2.7c0-1.5,0-3.2,0-4.9c1.2-31.8-4.1-63.6-15.6-93.3c-0.6-1.4,0.1-3,1.5-3.5
	c1.4-0.6,3,0.1,3.5,1.5c11.8,30.4,17.2,62.8,16,95.4c0,1.7,0,3.4,0,4.9s-1.2,2.7-2.7,2.7C635,200.5,634.9,200.5,634.8,200.5z"/>
<path class="st7" d="M619.2,117c-1.6,0.3-3.2-0.8-3.5-2.5c-0.2-1.4,0.5-2.8,1.8-3.3l10.6-4.4c1.6-0.6,3.3,0.2,3.9,1.8
	c0.6,1.5-0.1,3.2-1.6,3.8l-10.6,4.4C619.6,116.9,619.4,117,619.2,117L619.2,117z"/>
<path class="st7" d="M625.1,138.2c-1.7,0.1-3.1-1.1-3.3-2.8c-0.1-1.5,0.9-2.8,2.3-3.2l11.2-2.7c1.6-0.4,3.3,0.6,3.7,2.2
	c0.4,1.6-0.6,3.3-2.2,3.7l-11.2,2.7C625.4,138.2,625.2,138.2,625.1,138.2L625.1,138.2z"/>
<path class="st7" d="M640.6,159.2L640.6,159.2l-11.5,1.5c-1.7,0.2-3.2-0.9-3.4-2.6c-0.3-1.6,0.8-3.1,2.4-3.4h0.1l11.4-1.5
	c1.7-0.2,3.2,0.9,3.4,2.6C643.4,157.4,642.2,158.9,640.6,159.2L640.6,159.2L640.6,159.2z"/>
<path class="st7" d="M641.3,182.6c-0.1,0-0.2,0-0.3,0l-10.9,0.4c-1.6,0.1-3-1.2-3.1-2.8s1.2-3,2.8-3.1l10.9-0.4c1.6-0.1,3,1.2,3,2.9
	C643.8,181.1,642.7,182.4,641.3,182.6z"/>
<path class="st8" d="M543.1,125.1c0.3,2.7-1.6,5.1-4.2,5.5c-2.7,0.3-5.1-1.6-5.5-4.2l-4.9-39c-0.3-2.7,1.6-5.1,4.2-5.5
	c2.7-0.3,5.1,1.6,5.4,4.2l0,0L543.1,125.1z"/>
<path class="st8" d="M571.7,121.5c0.3,2.7-1.5,5.1-4.2,5.5c-2.7,0.3-5.1-1.6-5.5-4.2l-4.9-38.9c-0.3-2.7,1.6-5.1,4.2-5.5
	c2.7-0.3,5.1,1.6,5.5,4.2l0,0L571.7,121.5L571.7,121.5z"/>
<path class="st8" d="M570.6,64.4c-0.7,2.4-5.3,3.2-10.3,1.8c-5-1.4-8.5-4.5-7.8-6.9s5.3-3.2,10.3-1.8
	C567.8,58.9,571.3,62,570.6,64.4z"/>
<path class="st8" d="M538.5,61.4c1.1,2.2-1.7,6-6.3,8.3c-4.6,2.4-9.3,2.5-10.4,0.2c-1.1-2.2,1.7-6,6.3-8.3
	C532.7,59.3,537.4,59.2,538.5,61.4z"/>
<path class="st8" d="M555.2,142.7c6.4-0.8,12.4-3.2,17.6-7c4.7-3.6,8.6-8.1,11.4-13.3c1-1.9,1.5-4.6,3-5.7c2.8-2.1,6.7-1.9,12.4,3
	c3.3,4.2,4.9,9.5,4.5,14.8c0.3,13.6-6.6,26.4-18.2,33.7c-19.2,11.8-43.2,13.1-63.5,3.3c-8.1-4-14.6-10.6-18.4-18.8
	c-3.3-6.9-3.6-14.9-0.9-22.1c1.2-4.3,5.6-6.8,9.8-5.6c0.3,0.1,0.5,0.2,0.8,0.3c3.7,1.2,6.7,5.8,8.9,9.4
	C527.3,142,540,145,555.2,142.7L555.2,142.7z"/>
<path class="st9" d="M595.9,131.6c-2.1,5.2-5.6,9.8-10.2,13.2c2.7-4.6,5-9.5,6.7-14.6c0,0-2.4-6.8-5.4-13.3
	c-1.4,1.3-2.6,2.8-3.4,4.5c-2.5,5.7-6.2,10.6-11,14.5l4.9,13.7c-4.9,3.3-10.3,5.8-16.1,7.2c-0.5-1.2-2.2-7-4.2-14.4
	c-0.6,0.1-1.3,0.2-2,0.3c-15.2,2.3-27.2-2.1-31.9-9.6c-2.2-3.7-5.7-6.5-9.8-8c-0.1,5.5,0.1,11.1,0.5,16.6
	c3.7,6.5,9.4,11.6,16.2,14.6c-7.3-1.2-13.8-5.2-18.4-11c0,0-4.4,3.6-8.1,6.8c3.7,8.7,10.2,15.9,18.5,20.4
	c20.7,9.6,44.8,8.2,64.2-3.8c11.6-7.7,18.3-21,17.5-34.9C601.6,133.1,598.8,132.3,595.9,131.6L595.9,131.6z"/>
<path class="st10" d="M511.4,114.5c-1.5-0.8-3.3-0.3-4.2,1.1v0.1c-0.8,1.6-0.2,3.5,1.4,4.3c1.5,0.8,3.3,0.3,4.1-1.1v-0.1
	C513.5,117.2,512.9,115.3,511.4,114.5z"/>
<path class="st10" d="M498.8,123.6c-1.6-0.9-3.6-0.3-4.5,1.3v0.1c-0.8,1.7-0.2,3.7,1.5,4.6c1.6,0.9,3.6,0.3,4.5-1.3v-0.1
	C501.2,126.6,500.5,124.5,498.8,123.6z"/>
<path class="st10" d="M500,110.1c-1.6-0.9-3.6-0.4-4.5,1.2c0,0,0,0.1-0.1,0.1c-0.8,1.7-0.2,3.8,1.5,4.7c1.6,0.9,3.6,0.3,4.5-1.2
	c0,0,0-0.1,0.1-0.1C502.3,113.1,501.7,111,500,110.1L500,110.1z"/>
<path class="st10" d="M588.4,104.8c1.3,0.9,3.1,0.5,4-0.9s0.5-3.1-0.8-4s-3.1-0.5-4,0.9C586.7,102.1,587.1,103.9,588.4,104.8z"/>
<path class="st10" d="M600.8,97.2c1.4,0.9,3.4,0.5,4.3-0.9c0.9-1.4,0.5-3.4-0.9-4.3s-3.4-0.5-4.3,0.9
	C598.9,94.3,599.3,96.3,600.8,97.2L600.8,97.2L600.8,97.2z"/>
<path class="st10" d="M598.4,109.5c1.5,0.9,3.4,0.5,4.3-0.9c0.9-1.5,0.5-3.4-0.9-4.3s-3.4-0.5-4.3,0.9
	C596.5,106.6,596.9,108.5,598.4,109.5L598.4,109.5z"/>
<path class="st3" d="M646.6,30.4c0,0,5.6-7.4,11.3-8.1c5.8-0.7,4.8-6.3-2.1-5.7c-3.4,0.6-6.3,2.7-7.9,5.8c1.7-5.1,5.3-6.8,9-9.8
	s2.7-5.9-0.8-4.9c-5.6,1.2-10,5.3-11.5,10.8c1.3-3.7,2.9-7.4,4.7-10.9c1.7-3.3-1.8-8.4-8.2,2.2c-5.2,8.7-3.2,23.7,2.9,23.6
	L646.6,30.4z"/>
<path class="st11" d="M640.9,21.9c0,0,3.3-13,9.1-9.9c3.9,2.6-3.7,8.2-4.3,10.4s3.4,4.4-0.4,8.1C641.6,34.2,638.3,28.6,640.9,21.9
	L640.9,21.9z"/>
<path class="st3" d="M640.7,23.1c0,0,3.9-12.7,8.5-10.2c3.1,1.8-3.7,7.4-4.3,9.6s3.6,4.1-0.2,7.7C641,33.8,638.1,29.7,640.7,23.1z"
	/>
<path class="st3" d="M458.1,33.9c-4.3-0.3-8.6,1-12,3.6c1.4-5,3.1-10,5.1-14.8c3.2-9.7-2.2-11.1-6.1-2.2c-1.3,3.5-2.2,7.2-2.8,10.9
	c-0.6-5-0.9-9.9-1.3-14.8c-1.2-7-4.2-5.7-5.7-2.2c-1.2,6.7-0.5,13.5,2,19.8c-1.9-4.8-4.3-9.3-7.3-13.5c-3-2.4-3.8,1.2-3.1,3.5
	c2,8.2,7.1,15.3,14.3,19.7c0.3,0.5,1,0.7,1.6,0.5c0.2,0,0.3-0.1,0.4-0.2c0.2-0.1,0.4-0.3,0.6-0.5c3.8-2.1,12.6-4,15.9-6.4
	C461,36,459.6,34.2,458.1,33.9L458.1,33.9z"/>
<path class="st11" d="M426.9,20.8c0.1-0.4,0.4-0.7,0.7-1c0.4-0.2,0.9-0.3,1.3-0.1c0.8,0.4,1.4,0.9,1.9,1.5c1,1.2,1.9,2.6,2.7,4
	c0.8,1.4,1.4,2.8,2,4.3c0.6,1.5,1.1,3,1.6,4.5c-0.8-1.4-1.5-2.8-2.3-4.2c-0.7-1.4-1.5-2.8-2.2-4.2c-0.7-1.4-1.5-2.7-2.4-4
	c-0.4-0.6-0.9-1.2-1.6-1.6c-0.3-0.2-0.7-0.2-1-0.1C427.4,20.2,427.1,20.5,426.9,20.8L426.9,20.8z"/>
<path class="st11" d="M435.1,14.9c0.3-1.1,0.8-2.1,1.4-3c0.2-0.2,0.4-0.4,0.7-0.6c0.3-0.2,0.6-0.3,0.9-0.3s0.7,0.1,0.9,0.3
	c0.3,0.2,0.5,0.4,0.7,0.6c0.4,0.4,0.7,0.9,0.9,1.5c0.2,0.5,0.4,1,0.6,1.6c0.2,0.5,0.3,1.1,0.4,1.6c0.1,0.6,0.2,1.1,0.3,1.6
	c0.3,2.2,0.5,4.4,0.5,6.5c0.1,2.2,0,4.4-0.2,6.5l-0.6-6.5c-0.2-2.2-0.4-4.3-0.7-6.4c-0.1-1.1-0.4-2.1-0.6-3.1
	c-0.1-0.5-0.3-1-0.5-1.5s-0.4-0.9-0.7-1.3c-0.2-0.4-0.6-0.6-1.1-0.7c-0.5,0-0.9,0.2-1.2,0.6C436.1,13,435.5,13.9,435.1,14.9
	L435.1,14.9z"/>
<path class="st12" d="M947.3,672.2c6.6-21.5,31.1-25.7,29.9-13C975.2,669.8,944.2,688.4,947.3,672.2z"/>
<path class="st12" d="M733.4,336.7c0.2-3.5,0-7.1-0.7-10.6c-0.7-3.6-1.9-7.1-3.6-10.3c-1.7-3.3-3.8-6.3-6.3-9
	c-2.2-3.1-5.6-5.1-9.4-5.4c-1.2-0.1-2.2,0.9-2.2,2c0,0.2,0,0.4,0,0.6v0.1c0.9,3.2,2.8,6.1,5.5,8.2c2.1,2.3,3.9,4.7,5.6,7.3
	c1.6,2.6,3,5.4,4.1,8.2c1.1,2.9,2,6,2.9,9.3c0.3,1.1,1.5,1.7,2.5,1.4C732.7,338.2,733.3,337.5,733.4,336.7L733.4,336.7L733.4,336.7z
	"/>
<path class="st12" d="M733.1,336.4c0.2-1.6,0.7-3.1,1.6-4.4c1.1-1.8,2.1-3.7,2.9-5.7c0.8-2.2,1.3-4.5,1.4-6.9c0.5-2.5-0.5-5-2.6-6.5
	c-0.9-0.6-2.1-0.4-2.8,0.4l-0.2,0.2c-0.8,0.9-1.3,1.9-1.5,3c-0.1,0.9-0.1,1.7-0.1,2.6c-0.1,1.7-0.3,3.4-0.7,5.1s-1.1,3.5-1.6,5.7
	c-0.3,1.2-0.5,2.4-0.6,3.6c0,1.4,0.3,2.7,0.9,3.9c0.4,0.9,1.5,1.3,2.4,0.8c0.6-0.3,1-0.9,1-1.5L733.1,336.4L733.1,336.4z"/>
<path class="st12" d="M732.6,336.2c-1.6-2.8-3.5-5.5-5.6-8c-2.3-2.7-4.9-5-7.8-6.9c-3-2-6.2-3.5-9.6-4.5c-3.4-1.5-7.3-1.3-10.5,0.6
	c-1,0.7-1.2,2-0.6,3c0.1,0.1,0.2,0.2,0.3,0.3l0.1,0.1c2.4,2,5.3,3.3,8.4,3.7c2.7,0.8,5.4,1.9,7.9,3.3c2.6,1.4,5,3.1,7.3,4.9
	c2.4,1.9,4.6,4,7.3,6.1c0.9,0.7,2.2,0.5,2.8-0.3c0.5-0.7,0.6-1.6,0.1-2.3L732.6,336.2L732.6,336.2z"/>
<path class="st12" d="M731.7,335.6c-2.6-1.4-5.4-2.5-8.2-3.4c-2.9-0.9-5.8-1.7-8.8-2.1c-3.1-0.5-6.3-0.6-9.4-0.4l-2.5,0.3
	c-0.8,0.2-1.7,0.4-2.5,0.8s-1.6,0.9-2.2,1.5c-0.7,0.7-1.3,1.5-1.6,2.5c-0.4,1.1,0.1,2.3,1.2,2.7h0.1l0.5,0.2
	c0.7,0.2,1.5,0.4,2.2,0.5c0.6,0.1,1.2,0.2,1.8,0.1c0.6,0,1.2,0,1.8-0.2l1.8-0.2c2.6-0.2,5.2-0.2,7.8,0c2.7,0.1,5.4,0.4,8.2,0.7
	s5.6,0.7,8.5,0.9c1.1,0.1,2.1-0.8,2.2-1.9C732.9,336.8,732.5,336,731.7,335.6L731.7,335.6z"/>
<path class="st13" d="M950.3,677.1c2.2,0.1,4.2-1.6,4.3-3.8c0-0.6-0.1-1.3-0.3-1.9c-12.4-27.9-29-48.8-49.4-62
	c-0.5-0.3-0.9-0.6-1.1-0.8c-1.8-1.3-4.4-0.8-5.7,1s-0.8,4.4,1,5.7c0.3,0.2,0.8,0.5,1.3,0.9c19,12.3,34.6,32,46.4,58.5
	C947.4,676.1,948.8,677.1,950.3,677.1L950.3,677.1z"/>
<path class="st13" d="M782.5,676.8c2.1,0.1,4-1.4,4.2-3.5c3.5-26.5,25.9-47.4,39.1-54.4c2-1.1,2.7-3.6,1.6-5.5
	c-1.1-1.9-3.4-2.7-5.4-1.7c-15.3,8-39.4,30.7-43.4,60.5c-0.3,2.2,1.3,4.3,3.5,4.6L782.5,676.8L782.5,676.8z"/>
<path class="st13" d="M784.5,677.1c7.8-2.4-10.1-20.4-16.1-21.4c-15.7-4.8-19.7,8.9-5,15.3C770,674.2,777.2,676.3,784.5,677.1z"/>
<path class="st14" d="M950,676.6c6.8-19.9,28.5-21.7,26.4-16.3C975.4,657.8,960.7,658.3,950,676.6z"/>
<path class="st14" d="M784.1,674.5c-9.1-17.3-30-15.1-27.2-10.4C757.6,661.6,771.6,659.4,784.1,674.5z"/>
<path class="st13" d="M939.8,267c-10.2-7.7-45.2-10.6-86.2-6.5c-48.2,4.9-73.2,15.8-84.2,24.8c-9.9,7.4-6.8,24.7,0.2,31.7
	c7.2,8.3,40.6,13,88.7,8.1c40.8-4.1,74.5-13.9,83.1-23.5C949,296.4,952.2,275.3,939.8,267"/>
<path class="st13" d="M916.1,436.2c2.9,0,5.6-1.7,7-4.3c1.3-3.2,2.4-6.5,3.2-9.9c5.2-18.1,19-66.1,40.5-105.9l-6.8-3.7
	c-22,40.6-35.9,89.2-41.2,107.5c-1.3,4.7-2.2,7.7-2.6,8.4c-0.1,0.1-0.1,0.1-0.3,0.2L916.1,436.2L916.1,436.2z"/>
<path class="st14" d="M867.3,634.3c-3.1,0.1-6.2,0-9.2-0.3c-36-3.8-62.2-36.2-58.3-72.2c6.8-63.3,5.1-157.2-8.5-244.5
	c-3.3-21.1,128.5-30,131.7-16.7c12.7,97.3,15.2,201.9,7.4,275.1C926.9,608.1,900,633.2,867.3,634.3"/>
<path class="st15" d="M915.4,543l-0.4,31.1c-0.3,24.8-22.5,44.7-49.6,44.4s-48.9-20.7-48.6-45.6l0.4-31.1c16-4.1,32.7-4.3,48.8-0.6
	C882.2,544.8,899,545.4,915.4,543"/>
<path class="st16" d="M921.7,488.5c-6.4,3-13.2,4.9-20.2,5.6c3.2,53.9-5.8,97.9-7.5,116.2c7.3-2.4,13.4-7.6,17-14.5
	c3.3-6.7,5.2-13.9,5.6-21.4C920.5,541.2,921.7,488.5,921.7,488.5L921.7,488.5z"/>
<path class="st14" d="M846.2,555.8c0.1,2.7-2.1,4.9-4.7,5c-2.7,0.1-4.9-2.1-5-4.7c-0.1-2.7,2.1-4.9,4.7-5c0.1,0,0.1,0,0.2,0
	C844.1,551.1,846.2,553.2,846.2,555.8z"/>
<path class="st14" d="M859.3,574.8c0.1,4.9-3.8,8.9-8.6,9c-4.9,0.1-8.9-3.8-9-8.6c-0.1-4.9,3.8-8.9,8.6-9c0.1,0,0.2,0,0.3,0
	C855.3,566.1,859.2,570,859.3,574.8z"/>
<path class="st16" d="M943.2,279.8c-2.1-8-10.5-13.6-24-14.3c-9,0,16.9,2.2,1.3,22.3C914.2,295.8,948.9,301.1,943.2,279.8"/>
<path class="st17" d="M854.7,293.4c-2.9,3.4-6.6,5-8.3,3.4s-0.6-5.6,2.3-9.1c2.9-3.4,6.6-4.9,8.3-3.4
	C858.7,285.9,857.6,290,854.7,293.4"/>
<path class="st17" d="M883.1,287.1c-3.8-2.4-5.9-5.8-4.5-7.7c1.3-1.8,5.5-1.4,9.3,1s5.8,5.8,4.5,7.7
	C891.1,290,886.9,289.6,883.1,287.1"/>
<path class="st17" d="M890.2,345.3c0.2,0,0.4,0,0.6,0c2.9-0.1,5.1-2.6,5-5.5l0,0c-0.3-6-1-12.3-1.8-18.9c-0.5-4.7-1.1-9.5-1.5-14.5
	c-0.2-2.9-2.8-5-5.7-4.8s-5,2.8-4.8,5.7c0.4,5.1,1,10,1.6,14.8c0.7,6.4,1.4,12.5,1.7,18.2C885.4,343,887.5,345.1,890.2,345.3
	L890.2,345.3z"/>
<path class="st17" d="M857.1,349.3c0.3,0,0.6,0,1,0c2.9-0.4,4.9-3,4.5-5.9c-0.8-6.1-1.2-12-1.5-17.7c-0.3-5.2-0.6-10.6-1.3-16.1
	c-0.3-2.9-2.9-5-5.7-4.7c-2.9,0.3-5,2.9-4.7,5.7c0,0.1,0,0.2,0,0.2c0.6,5.1,0.9,10.1,1.3,15.5c0.4,5.9,0.7,11.9,1.6,18.4
	C852.6,347.2,854.6,349.2,857.1,349.3z"/>
<path class="st17" d="M837.7,347.3c-1.1-1-2.4-1.7-3.8-2.1c-1.4-0.5-2.9-0.6-4.4-0.5c-1.5,0.2-3,0.8-4.2,1.8s-2,2.3-2.3,3.7
	c1-0.9,2-1.8,3.2-2.4c1.1-0.6,2.3-0.9,3.5-1.1C832.4,346.5,835.1,346.7,837.7,347.3L837.7,347.3z"/>
<path class="st17" d="M910.1,347.4c-9.6,17.4-64.6,15.1-80.2-0.3c3.6,30.1,24.2,55.6,38.1,55.4C902.6,407.8,910.1,347.4,910.1,347.4
	z"/>
<path class="st13" d="M876,402.5c-2.6,0.4-5.3,0.4-7.9-0.1c-9.4,0.2-21.9-11.5-30.1-28.4C845.1,368.1,877.1,382.5,876,402.5z"/>
<path class="st13" d="M811.4,439.1c2.1,0.3,4-1.2,4.3-3.4c0.1-1-0.1-1.9-0.7-2.7c-13.7-19.6-49.3-68.7-82.6-100.7
	c-1.5-1.5-4-1.4-5.5,0.1s-1.4,4,0.1,5.5c32.8,31.5,68,80.1,81.6,99.6C809.3,438.4,810.3,439,811.4,439.1z"/>
<path class="st18" d="M739.2,318.1c0-1.2-0.2-2.3-0.6-3.4c-0.3-1.2-1.2-2.2-2.2-2.8c-1.2-0.5-2.7-0.2-3.6,0.8
	c-0.9,0.9-1.4,2.1-1.4,3.4c0,1.2,0.1,2.3,0.2,3.5c0.1,1.1,0.1,2.2,0.1,3.3c0.1,2.2-0.2,4.4-0.9,6.4l0.6-0.3c-1-0.1-2,0.3-2.7,1.1
	c-0.6,0.7-1,1.6-1.1,2.5s-0.1,1.8,0.2,2.6c0.2,0.8,0.6,1.6,1.2,2.2c-0.8-1.4-1-3.1-0.6-4.7c0.2-0.7,0.5-1.4,1.1-1.9
	c0.5-0.5,1.2-0.7,1.9-0.6h0.4l0.2-0.4c0.9-2.2,1.3-4.6,1.2-6.9c0-1.2-0.1-2.3-0.2-3.4c-0.1-1.1-0.3-2.3-0.3-3.3s0.4-2,1-2.8
	s1.6-1.1,2.6-0.7c1,0.5,1.7,1.3,2.1,2.2C738.7,316,739,317,739.2,318.1L739.2,318.1z"/>
<path class="st12" d="M963.4,315.1c0.7-3.3,1.3-6.5,2.2-9.5c0.9-2.9,2-5.8,3.5-8.5s3.2-5.3,5.1-7.7c2.5-2.3,4.2-5.3,4.8-8.6v-0.1
	c0.2-1.2-0.6-2.3-1.8-2.4c-0.2,0-0.4,0-0.6,0c-3.7,0.6-7,2.9-8.9,6.1c-2.3,2.9-4.2,6-5.6,9.4c-1.5,3.4-2.4,6.9-2.9,10.6
	c-0.4,3.5-0.3,7.1,0.1,10.6c0.1,1.1,1.2,1.9,2.3,1.8C962.5,316.6,963.2,315.9,963.4,315.1L963.4,315.1L963.4,315.1z"/>
<path class="st12" d="M963.1,315.4c0.5-1.2,0.8-2.6,0.6-4c-0.1-1.2-0.4-2.4-0.8-3.6c-0.7-2.1-1.5-3.8-2-5.5c-0.5-1.6-0.9-3.3-1.1-5
	c0-0.9-0.1-1.7-0.3-2.6c-0.3-1.1-0.9-2.1-1.7-2.9l-0.2-0.2c-0.8-0.8-2-0.8-2.9-0.2c-2,1.6-2.8,4.2-2.2,6.7c0.3,2.3,0.9,4.6,1.9,6.8
	c0.9,1.9,2,3.7,3.3,5.5c1,1.2,1.7,2.7,1.9,4.2v0.4c0.1,1,1,1.7,2,1.5C962.3,316.4,962.9,316,963.1,315.4L963.1,315.4L963.1,315.4z"
	/>
<path class="st12" d="M963.1,316.9c2.6-2.4,4.6-4.6,6.8-6.7c2.1-2,4.5-3.8,6.9-5.4c2.4-1.5,4.9-2.8,7.6-3.9c3-0.6,5.9-2.1,8.1-4.3
	l0.1-0.1c0.8-0.9,0.7-2.2-0.1-3c-0.1-0.1-0.2-0.2-0.4-0.3c-3.3-1.7-7.3-1.6-10.6,0.1c-3.3,1.3-6.4,3-9.2,5.2
	c-2.7,2.1-5.2,4.6-7.2,7.4c-1.9,2.6-3.6,5.5-5,8.4l-0.1,0.2c-0.5,1-0.1,2.2,0.9,2.7C961.6,317.6,962.5,317.5,963.1,316.9
	L963.1,316.9z"/>
<path class="st12" d="M962.3,317.5c2.9-0.5,5.6-1,8.4-1.5c2.8-0.5,5.5-1,8.2-1.3c2.6-0.4,5.2-0.5,7.8-0.6l1.8,0.1
	c0.6,0.1,1.2,0.1,1.8,0c0.6,0,1.2-0.1,1.8-0.3c0.7-0.1,1.5-0.4,2.2-0.6l0.5-0.2c1.1-0.4,1.6-1.6,1.2-2.7l-0.1-0.1
	c-0.4-0.9-1-1.7-1.8-2.3c-0.7-0.5-1.5-1-2.4-1.4c-0.8-0.3-1.7-0.5-2.5-0.6l-2.5-0.1c-3.2,0-6.3,0.4-9.3,1.1
	c-2.9,0.7-5.8,1.6-8.6,2.7s-5.4,2.4-7.9,4c-1,0.6-1.2,1.9-0.7,2.8C960.6,317.3,961.4,317.6,962.3,317.5L962.3,317.5L962.3,317.5z"/>
<path class="st18" d="M952.2,296.8c0.1-1.1,0.4-2.2,0.7-3.3c0.3-1,1-1.9,2-2.4c0.9-0.4,2-0.2,2.6,0.6c0.7,0.8,1.1,1.7,1.2,2.7
	c0,1.1,0,2.2,0,3.3c0,1.1,0,2.3,0,3.4c0.1,2.4,0.7,4.7,1.7,6.8l0.2,0.4h0.4c0.7-0.1,1.4,0.1,2,0.5c0.6,0.5,1,1.1,1.2,1.9
	c0.5,1.6,0.4,3.3-0.3,4.7c0.6-0.7,0.9-1.5,1.1-2.3c0.2-0.9,0.2-1.8,0-2.6c-0.2-0.9-0.6-1.8-1.3-2.4c-0.7-0.7-1.8-1-2.8-0.8l0.6,0.3
	c-0.9-2-1.4-4.2-1.4-6.3c-0.1-1.1-0.1-2.2-0.1-3.3c0-1.2,0-2.3-0.1-3.5c-0.1-1.3-0.7-2.4-1.7-3.3s-2.4-1.1-3.6-0.5
	c-1,0.7-1.8,1.7-2,2.9C952.2,294.6,952.1,295.7,952.2,296.8L952.2,296.8z"/>
<path class="st19" d="M569,494.5c-7.8-4.5-12.3-13.1-11.5-22.1c1.3-8.2,8.9-19.8,37.4-28l2,7c-19.1,5.5-30.8,13.6-32.2,22.2
	c-0.3,6.2,2.9,12,8.4,14.9L569,494.5L569,494.5z"/>
<path class="st19" d="M529,296.3c-1.6-0.2-2.9-1.3-3.3-2.8c-0.6-2.3-15.7-56-19.9-85.4c-0.3-2.1,1.2-4.1,3.3-4.4
	c2.1-0.3,4.1,1.2,4.4,3.3c4.2,28.9,19.5,83.9,19.7,84.4c0.6,2.1-0.6,4.2-2.7,4.8C530,296.3,529.5,296.3,529,296.3L529,296.3
	L529,296.3z"/>
<path class="st19" d="M739.3,521.1c-1.5-0.2-2.7-1.2-3.1-2.5c-5.9-20.3-15.5-39.3-28.2-56.1c-1.4-2-2.8-4-4.2-6
	c-1.1-1.7-0.7-3.9,0.9-5.1c1.7-1.1,3.9-0.7,5.1,0.9c1.4,2,2.8,4,4.1,5.9c13.2,17.4,23.1,37.1,29.2,58.2c0.6,1.9-0.5,4-2.4,4.6
	C740.2,521.1,739.7,521.1,739.3,521.1L739.3,521.1L739.3,521.1z"/>
<path class="st19" d="M573,488.4c-4.3,2.3-8.1,5.4-11.3,9.2c-1.8-0.3-3.6-0.4-5.4-0.4c-7.3,1.7-9.1,8.6-4.7,11.2
	c4.8,2.3,10.2,2.9,15.3,1.6C572.1,507.7,579.7,490.3,573,488.4L573,488.4z"/>
<path class="st20" d="M551.2,343.4c-0.6,32.8-30,55.6-11.8,80.1c26.3,35.6,67.7,57,112,57.9c78.9,1.6,104.6-63,106.1-141.8
	c1.6-78.9-50.9-96.2-104.4-92.7C608.9,249.6,552.7,264.5,551.2,343.4z"/>
<path class="st21" d="M652.8,337.5L650,481.2c0.5,0,0.9,0.1,1.4,0.1c43.7,0.9,85.3-18.3,113-52L652.8,337.5z"/>
<path class="st22" d="M763.9,429.8C792,396,803,351.2,793.7,308.2l-140.9,29.3L763.9,429.8z"/>
<path class="st23" d="M652.8,337.5l141-28.3c-9-42.9-37.2-79.2-76.4-98.7L652.8,337.5L652.8,337.5z"/>
<path class="st24" d="M652.7,337.5L718,210.7c-38.9-19.5-84.6-20.1-124-1.8L652.7,337.5L652.7,337.5z"/>
<path class="st18" d="M515.4,304.6l137.4,32.9l-58.4-128.8C554.9,227,525.8,262.3,515.4,304.6z"/>
<path class="st25" d="M515.7,303.7c-10.6,41.9-1.5,86.3,24.5,120.8l112.6-87L515.7,303.7z"/>
<path class="st26" d="M685.4,257.7l-28.6-36.2L625.2,257c-47.5,16.1-72.9,67.7-56.8,115.2c16.1,47.5,67.7,72.9,115.1,56.8
	c47.5-16.1,72.9-67.7,56.8-115.2C731.5,287.7,711.3,267.1,685.4,257.7L685.4,257.7L685.4,257.7z"/>
<path class="st27" d="M600,299.5c15.5,29.9,89.9,35.2,109.2,3.7C694.1,343,612.2,340.4,600,299.5z"/>
<path class="st27" d="M602.3,303.9c0,0,11.6,77.1,49.1,78.4c38.5,3,54.7-74.9,54.7-74.9s-13.8,22-52.2,20.6
	C615.5,326.6,602.3,303.9,602.3,303.9z"/>
<path class="st28" d="M651.6,382.5c9.4,0,18.3-3.9,24.7-10.8c-2.8-11-12.3-18.9-23.6-19.9c-11.2,0-21.2,7.2-24.7,17.8
	C633.8,377,642.3,381.7,651.6,382.5z"/>
<path class="st27" d="M595.3,305.4c-0.1-0.3-0.2-0.6-0.2-0.9c-0.1-0.8-0.1-1.7,0.2-2.5c0.2-0.6,0.4-1.1,0.8-1.6
	c3.4-5,11.4-3,15.6-0.4C606.2,299.9,596.7,297.8,595.3,305.4z"/>
<path class="st27" d="M714.4,310.2c0.1-0.3,0.2-0.6,0.3-0.9c0.2-0.8,0.2-1.7,0-2.5c-0.1-0.6-0.4-1.1-0.7-1.6
	c-3.1-5.2-11.1-3.8-15.5-1.5C703.9,303.9,713.5,302.6,714.4,310.2L714.4,310.2z"/>
<path class="st27" d="M642.4,252.1c0.7,1.7-1.8,4.5-5.8,6.2c-3.9,1.7-7.8,1.7-8.5,0s1.8-4.5,5.8-6.2
	C637.9,250.4,641.7,250.4,642.4,252.1L642.4,252.1z"/>
<path class="st27" d="M671.8,253.7c-0.9,1.7,1.6,4.6,5.4,6.6c3.8,2,7.6,2.2,8.5,0.5s-1.6-4.6-5.4-6.6
	C676.5,252.3,672.6,252,671.8,253.7z"/>
<path class="st27" d="M639.1,308.1c-0.2,3.4-3.1,5.9-6.4,5.8l0,0c-3.4-0.2-5.9-3.1-5.7-6.4l1.5-26.8c0.2-3.4,3.1-5.9,6.4-5.7
	c3.4,0.2,5.9,3,5.8,6.4l0,0L639.1,308.1L639.1,308.1z"/>
<path class="st27" d="M682,310.4c-0.2,3.4-3,5.9-6.4,5.8l0,0c-3.4-0.2-5.9-3.1-5.7-6.4l1.5-26.8c0.2-3.4,3.1-5.9,6.4-5.7
	c3.4,0.2,5.9,3.1,5.7,6.4L682,310.4z"/>
<path class="st29" d="M753.2,530.5c16.8,2.4,18.9-1.7,17.4-5.6c-2.1-4.5-6.3-7.7-11.2-8.5c-7.3-1.9-19.8,0-23.3-2.6
	C734.6,520.2,738.9,528.4,753.2,530.5z"/>
<path class="st19" d="M517.6,198.6c-1.9-12.8-11.1-12.2-11.6-3.8c-2.1-0.1-4.1,0.9-5.2,2.8c-0.3,0.6-4.6,5.6,5.2,12.3
	C516.1,217.6,518.7,203.1,517.6,198.6L517.6,198.6z"/>
<path class="st30" d="M506.5,195.7c-10.6-2,1.4,18.7,5.1,9.8c1.9,2.8-2,5.1-4.3,3.3c-5.5-3-10.3-15.7-0.6-14.6L506.5,195.7
	L506.5,195.7z"/>
<path class="st30" d="M514.6,191c-1.6-1.6-4.3-1.7-5.9-0.1c-0.9,0.9-1.4,2.2-1.2,3.5v-0.1c0.1,9.8,6.3,17.5,7.5,2.9
	c1.3,8.8-4.8,14.3-8.2,3.1c-1.1-2.9-1.1-6.2,0-9.1c1.1-2.2,3.7-3.1,5.9-2C513.5,189.7,514.1,190.3,514.6,191z"/>
<path class="st30" d="M501.8,198.2c-5.3,3.5,2.7,13.9,7.8,10c0.8,1.1-0.6,2.1-1.5,2.2c-6.4,1.4-13.1-10.8-6.4-13.7L501.8,198.2
	L501.8,198.2z"/>
<path class="st19" d="M519.8,198.7c0.4,4.8-1.9,9.5-5.9,12.2c-1.5,0.8,0-3.5-1.5-3.9c-5.1,2.9-8.8-1.8-3.8-4.6
	C512.1,198.1,519.1,195.7,519.8,198.7L519.8,198.7z"/>
<path class="st30" d="M519.9,200c0.1-0.6,0-1.2-0.2-1.8c-0.3-0.5-0.8-0.8-1.4-0.8c-1.2,0-2.4,0.4-3.4,1c-1.1,0.6-2.1,1.2-3.1,2
	c-1,0.7-1.8,1.6-2.6,2.6c-0.8,0.9-1.3,1.9-1.6,3c-0.1,0.2-0.1,0.4,0,0.6c0,0.1,0,0.1,0.2,0.2c0.5,0.1,1,0.1,1.5,0
	c1.2-0.2,2.4-0.6,3.5-1c0.6-0.2,1.2-0.4,1.7-0.7c0.6-0.2,1.1-0.5,1.7-0.9c-0.4,0.5-0.9,1-1.4,1.3c-0.5,0.4-1.1,0.7-1.6,1.1
	c-0.6,0.3-1.2,0.6-1.8,0.9c-0.6,0.3-1.2,0.5-1.9,0.6c-0.3,0.1-0.7,0.1-1.1,0.2c-0.4,0-0.8,0-1.2-0.2c-0.2-0.1-0.5-0.2-0.7-0.4
	s-0.3-0.4-0.4-0.7c-0.1-0.4-0.1-0.9,0-1.3c0.3-1.4,1-2.6,1.9-3.7c1.7-2,3.9-3.6,6.4-4.6c0.6-0.3,1.3-0.4,1.9-0.6
	c0.7-0.2,1.4-0.2,2-0.1c0.4,0.1,0.7,0.2,1,0.4s0.5,0.5,0.6,0.9C520.1,198.7,520.1,199.4,519.9,200L519.9,200z"/>
<path class="st31" d="M501.8,337.3c-2.1-0.2-3.7-2-3.6-4.1c0.1-1.6,1.2-2.9,2.7-3.4c7-2.9,13.5-7,19-12.1
	c14.4-13.5,24.1-31.3,27.7-50.8c0.4-2.1,2.5-3.4,4.6-3s3.4,2.5,3,4.6c-3.9,21-14.4,40.3-30.1,54.9c-6.3,5.9-13.7,10.5-21.8,13.7
	C502.9,337.2,502.3,337.3,501.8,337.3L501.8,337.3z"/>
<path class="st31" d="M549,271.5c-2.3,0.4-4.9-8.3-6.3-12.8c-1.5-3.7-1.6-7.9-0.3-11.8c1.4-4.7,5.3-8.2,10.1-9c0.7-0.2,1.5,0,2,0.6
	c0.7,0.9-0.1,2.1-0.8,2.9c-2.1,2.2-3.9,4.8-5.2,7.5c-1.2,2.8-1.7,3.8-0.3,6.6c0.1,0.2,0.3,0.4,0.5,0.6c1,0.8,2.4-0.4,3.1-1.4
	c2.1-3.4,4.8-6.3,7.9-8.8c3.7-2.2,8.7-3.4,9.1-0.3c0.4,3.2-11.3,7.7-13.5,13.9c2.9-4.5,7.3-7.7,12.4-9.1c1.2-0.4,2.5,0.3,2.9,1.6
	c0.1,0.2,0.1,0.4,0.1,0.6c-1.2,3.1-3.4,3.9-6.1,5.9c-1.4,0.9-2.7,1.9-4,3c-3.5,2.6-5.9,6.5-6.5,10.8c-2.9-0.7-8.2-3.8-8.4-6.8
	c-0.5-7.2,3.3-14,9.7-17.4c0.8-0.4,2-0.6,2.4,0.2c0.2,0.4,0.1,0.9,0,1.3c-1.5,4.8-5.8,8.8-5.5,13.8"/>
<path class="st32" d="M553.6,264.6c-0.4-5.7,4.6-10.3,6.3-15.7c0.2-0.5,0.2-1,0-1.5c-0.8-2.5-3.5-2.2-5.2-1.4
	c-7.4,3.7-11.2,12.1-9.1,20.1C548.4,275.5,556.8,272.4,553.6,264.6z"/>
<path class="st31" d="M552.2,265.1c-0.3-5.6,4.5-10.1,6.2-15.5c0.2-0.5,0.2-1,0-1.5c-0.4-1.2-1.8-1.9-3-1.5
	c-0.2,0.1-0.3,0.1-0.5,0.2c-7.4,4.1-11.3,12.6-9.5,20.8C547.6,275.7,554.8,271.5,552.2,265.1L552.2,265.1z"/>
<path class="st33" d="M452.7,222.3c0,0,81.2-72.7-11.1-139.1c3.6,7.3,6,15.1,7.1,23.1c-14.2-19.7-32.8-35.7-54.4-46.7
	C361.6,42.7,324.4,36.7,288,42.5c22,5.2,39.1,22.3,44.3,44.3c9.2,36.5-21,68.8,0,111.3c20.1,40.7,65.7,41.7,65.7,41.7
	S410.1,219,452.7,222.3z"/>
<path class="st34" d="M288,42.5c0.4,0,0.9,0,1.3,0c21.8,5.5,63.5,10.7,73.1,48.4s-44.3,96.3,49.8,137.5c-5.7,2.5-10.5,6.4-14.1,11.4
	c0,0-45.6-1-65.7-41.7c-21-42.6,9.2-74.8,0-111.3C327.1,64.8,310,47.6,288,42.5L288,42.5z"/>
<path class="st33" d="M516.7,619.3c-0.9-0.1-1.8-0.5-2.4-1.2c-18.4-17.6-32.3-39.3-40.8-63.3c-0.6-2.2,0.7-4.4,2.9-5
	c2-0.6,4.2,0.5,4.9,2.5c8,22.8,21.3,43.3,38.7,60c1.6,1.6,1.6,4.2,0,5.8C519.2,619,518,619.5,516.7,619.3z"/>
<path class="st33" d="M566.7,579.2c-0.3,0-0.6,0.1-0.9,0.1c-20.1-0.8-58.5-21.4-72.6-31.8c-1.8-1.4-2.1-4-0.7-5.7
	c1.3-1.7,3.8-2.1,5.6-0.8c13.6,10,50.7,29.5,68.1,30.2c2.3,0.1,4,2,3.9,4.3C570,577.3,568.6,578.9,566.7,579.2L566.7,579.2z"/>
<path class="st22" d="M403.3,236.8c-5.6,5.4-10.5,11.5-14.5,18.1c-2,3.2-3.8,6.4-5.5,9.7c-0.4,0.8-0.8,1.6-1.2,2.5
	c-0.4,0.8-0.8,1.7-1.2,2.5l-1.1,2.5l-1,2.5c-5.4,13.4-8.8,27.5-10.2,41.8c-0.4,3.6-0.5,7.1-0.7,10.7s-0.2,7.2-0.3,10.7
	c0,3.6,0.1,7.2,0.2,10.8c0.1,3.6,0.4,7.2,0.7,10.7c1.3,14.3,3.8,28.5,7.5,42.4s8.4,27.5,13.4,40.8l3.8,9.9l3.9,9.8l4,9.7
	c1.3,3.2,2.8,6.4,4.2,9.6c5.6,12.7,12,25,19.1,36.9s15,23.1,23.8,33.8c11.5,13.8,32.1,15.6,45.9,4.1c7.4-6.2,11.6-15.3,11.7-24.9
	v-1.5c0-12.4-0.3-24.4-0.3-36.1s0-23.3,0.3-34.6c0.1-2.8,0.2-5.7,0.3-8.5c0.1-2.8,0.3-5.6,0.5-8.4s0.5-5.6,0.8-8.4s0.7-5.6,1-8.3
	c1.5-11.1,3.7-22,5.9-32.7c2.1-10.7,4.1-21.1,5.7-31.5c0.4-2.6,0.8-5.2,1.1-7.7c0.3-2.6,0.7-5.1,1-7.7s0.6-5.1,0.9-7.7l0.4-3.8
	l0.3-3.8c0.9-10.5,0.7-21-0.6-31.5l-0.3-2l-0.3-2.1c-0.1-0.7-0.2-1.4-0.3-2.1s-0.2-1.4-0.4-2.1c-0.5-2.8-1.1-5.6-1.9-8.4
	c-0.7-2.9-1.5-5.8-2.6-8.7c-1-3.1-2.3-6.2-3.7-9.2l-4.3-8.6c-16.6-33.3-57-46.8-90.3-30.2C413.5,228.6,408.1,232.3,403.3,236.8
	L403.3,236.8z"/>
<path class="st35" d="M487.4,226c-2.2-0.1-56.7-10.8-95.8,26.1c0,0-3.1-32.5,43.1-44.4C466.2,199.7,487.6,221.4,487.4,226L487.4,226
	z"/>
<path class="st27" d="M448.1,228.6c1.5,1.8,5.4,0.9,8.7-2c3.3-2.9,4.7-6.6,3.2-8.4c-1.5-1.7-5.4-0.9-8.7,2S446.6,226.9,448.1,228.6
	L448.1,228.6z"/>
<path class="st27" d="M474.8,218.9c-1,1.8,0.9,4.8,4.4,6.8c3.4,2,7,2.1,8,0.4c1-1.8-1-4.8-4.4-6.8
	C479.5,217.3,475.8,217.1,474.8,218.9L474.8,218.9z"/>
<path class="st27" d="M501.3,288.6c-1.6,2.4-11.4,10.6-31.4,9.3c-15-1.6-36.6-14.3-38.5-31.6c-1,18.1-1.3,73.8,23.1,76.5
	C478.8,345.3,499.2,292.9,501.3,288.6L501.3,288.6z"/>
<path class="st35" d="M432.6,308.2c11.1-1.6,21.9,4.3,26.8,14.4c3.6,6.3,3.3,14.1-0.9,20c-1.5,0.2-3,0.3-4.5,0.1
	C441.3,341.3,435.3,325.6,432.6,308.2L432.6,308.2z"/>
<path class="st27" d="M484.7,285.7c-2.8-0.3-4.9-2.8-4.7-5.7c1.2-14.1,0.1-28.4-3.1-42.2c-0.7-2.9,1-5.7,3.9-6.4s5.7,1,6.4,3.9
	c3.5,14.9,4.7,30.3,3.4,45.5c-0.2,2.9-2.7,5.1-5.7,4.9L484.7,285.7L484.7,285.7z"/>
<path class="st27" d="M458.9,287.4c-2.8-0.3-4.9-2.7-4.9-5.5c0.3-14.4-0.8-28.7-3.2-42.8c-0.7-2.9,1.2-5.8,4.1-6.5s5.8,1.2,6.5,4.1
	c0,0.2,0.1,0.3,0.1,0.5c2.6,14.8,3.7,29.9,3.4,44.9c0,3-2.5,5.4-5.5,5.4l0,0C459.3,287.4,459.1,287.4,458.9,287.4L458.9,287.4z"/>
<path class="st33" d="M561.1,575.9c-1-9.7,34.2-21.1,36.1-10.1C601.6,577.6,561.1,589,561.1,575.9z"/>
<path class="st33" d="M514.2,612.3c-3.3,1.3-2.2,16.3,21.9,14.4c13.1-1.9,7.1-9.9-2-13.7C527.8,610.3,520.7,610.1,514.2,612.3
	L514.2,612.3z"/>
<path class="st31" d="M378.4,381.2c-0.3,0-0.6-0.1-0.8-0.2c-11.7-4.6-22.3-11.7-31.1-20.7c-13.8-13.9-30.3-39.2-30.1-80.5
	c0-2.1,1.8-3.9,3.9-3.8c2.1,0,3.9,1.8,3.8,3.9c-0.2,38.7,15,62.1,27.8,75c8,8.2,17.6,14.6,28.2,18.8c2.1,0.5,3.4,2.5,2.9,4.6
	C382.5,380.4,380.5,381.7,378.4,381.2L378.4,381.2L378.4,381.2z"/>
<path class="st31" d="M336.8,270.3c0.4-2.5-1.7-4-4.4-3c-2.2,0.8-6.4,7.9-8.2,7.8c1.9-8.1,7.1-21.4,2.5-23.6
	c-6.2-2.9-7.6,9.2-7.7,19.1c-4.9-8.4,0.8-21.8-5.7-23.5c-4.9-0.9-4.7,7.7-4.5,11.2c-1.3-3.5-3-5.7-5.9-3.7
	c-6.1,4.2,4.5,20.7,15.6,27.4l-0.4-0.8c0.8,0.6,1.8,1,2.8,1.1c1.4,0.1,2.9-0.1,4.2-0.7C328.5,280.4,336.2,274.7,336.8,270.3
	L336.8,270.3z"/>
<path class="st36" d="M302.1,255.2c4.6-4.9,7.7,3.1,8.5,6.8c1.3,4.1,3.3,8,6,11.4C307,267.5,309.5,250.7,302.1,255.2L302.1,255.2z"
	/>
<g>
	<path class="st37" d="M1879.3,162.2c11.5-39-43.4-60.3-55.3-52.5c-18.6,11.5,2.1,25.3,2.2,32.3c-30.1-7.5-42.4,18.3-35.1,31.1
		c-15.6,5.1-25.3,27-15.7,35.5c-17.5,17.6-6.5,38.7,2.3,33.3"/>
	<path class="st38" d="M1780.3,250.3c0,0-29.1-4.7-28.1-7.3c3-6,29.4-3.7,29.4-3.7L1780.3,250.3L1780.3,250.3z"/>
	<path class="st39" d="M1751.1,392.5c-1.8,0-3.3-1.5-3.3-3.3c0-1.3,0.8-2.5,1.9-3c0.6-0.3,1.2-0.5,1.8-0.8
		c8.6-3.9,22.9-10.3,23.8-28c0.1-1.8,1.6-3.3,3.4-3.3s3.3,1.6,3.3,3.4c0,0.1,0,0.1,0,0.2c-1.1,21.7-18.4,29.5-27.7,33.7l-1.8,0.8
		C1752,392.4,1751.5,392.5,1751.1,392.5L1751.1,392.5z"/>
	<path class="st39" d="M1767.3,399.5c0.5-11-16.9-16.4-19.3-12.2c-1.9,3.2,2.2,6.2,5.2,8.5C1761.1,402.4,1767.3,403,1767.3,399.5z"
		/>
	<path class="st40" d="M1764.6,392.2c-0.8-0.9-1.8-1.8-2.7-2.5c-1-0.7-2-1.4-3.2-1.8c-1.1-0.5-2.3-0.8-3.5-1s-2.5-0.2-3.7-0.2
		c1.2-0.3,2.5-0.5,3.8-0.4s2.6,0.4,3.8,0.9c1.2,0.5,2.3,1.2,3.2,2.1C1763.1,390.1,1763.9,391.1,1764.6,392.2L1764.6,392.2z"/>
	<path class="st39" d="M1822.8,420.2c-0.6,0-1.2-0.2-1.8-0.5c-5.4-3.4-8.9-9.1-9.7-15.4c-0.9-8.2,1.9-16.3,7.7-22.1
		c1.2-1.4,3.3-1.5,4.7-0.3c1.4,1.2,1.5,3.3,0.3,4.7l-0.1,0.1c-4.4,4.4-6.6,10.5-6,16.7c0.5,4.3,2.9,8.2,6.6,10.6
		c1.6,1,2.1,3,1.1,4.6C1825,419.6,1823.9,420.2,1822.8,420.2L1822.8,420.2L1822.8,420.2z"/>
	<path class="st39" d="M1736.9,312c-1.6,0-3.1-1.1-3.6-2.7c-3.3-8.5-0.3-18.2,7.2-23.3c7.6-5,20.7-5.5,32.6,4.6
		c1.6,1.3,1.7,3.7,0.4,5.3c-1.3,1.5-3.6,1.7-5.2,0.4c-6.3-5.3-16.3-8.9-23.7-4.1c-4.7,3.4-6.4,9.6-4.2,15c0.6,2-0.5,4.1-2.5,4.6
		C1737.6,312,1737.3,312,1736.9,312L1736.9,312z"/>
	<path class="st41" d="M1907.2,324.7c10.7-38.6,17.6-67,17-93.2h-0.2c3.3-41.2-27.3-77.3-68.5-80.7c-37.9-3.1-72.1,22.7-79.5,60.1
		h-0.2c-1.3,25.9-5.1,51.6-11.1,76.8c-4.4,11.9-14.1,32.5-22.1,50.4c23.5,25.3,96.8,58.9,137.1,60.1
		C1879.7,398.2,1900.4,349.7,1907.2,324.7L1907.2,324.7z"/>
	<path class="st42" d="M1896.4,252.2c-52.9-9.7-93.2-27.7-123.1-17c0.3,9-4,20.7-6.9,43.1c29.7-3,88,13.7,117.5,28.3
		C1889.9,282.1,1893.4,270.8,1896.4,252.2z"/>
	<path class="st43" d="M1814.5,271.8c-0.3,2.4-2.6,4.1-5,3.8c-2.4-0.3-4.1-2.6-3.8-5l0,0l2.5-17.8c0.4-2.5,2.6-4.2,5.1-4
		c2.2,0.3,3.9,3.6,3.6,6L1814.5,271.8L1814.5,271.8z"/>
	<path class="st44" d="M1752,243.6c15.9-10.5,108.8-6.6,149.1,27.5c0,0,2.9-43,3-55.9c-4.4-13.6-80.7-44-148.1-27.9
		C1755.9,187.3,1753.6,219.7,1752,243.6z"/>
	<path class="st45" d="M1775,197.6l11.3,1.2l-1.6,31.5l-11-0.1L1775,197.6z"/>
	<path class="st45" d="M1802.1,199l-5.6,30.8l10.5,1.8l6.2-30.6L1802.1,199L1802.1,199z"/>
	<path class="st45" d="M1828.1,204l-4.6,30l10.2,1.9l6.4-29.3L1828.1,204L1828.1,204z"/>
	<path class="st45" d="M1858.6,213.1l-5.6,28.1l10.1,2.4l5.8-28.9L1858.6,213.1z"/>
	<path class="st46" d="M1841.5,268.4c-0.5,0.6-4.3-2.2-8.8-2c-4.8,0.2-8.5,3.2-9.1,2.3c-1.1-1.6,4.5-7.9,10.2-7.9
		C1839.6,261,1842.5,267.2,1841.5,268.4L1841.5,268.4z"/>
	<path class="st39" d="M1899.5,338.2c-2.1,0-3.7-1.7-3.7-3.7c0-1.7,1.1-3.1,2.7-3.6c8.6-3.2,16.6-7.9,23.5-14
		c18.6-16.3,32.2-37.5,39.4-61.1c0.6-2,2.7-3.1,4.6-2.5c2,0.6,3.1,2.7,2.5,4.6c0,0.1,0,0.1-0.1,0.2c-7.7,25.1-22.3,47.5-42.1,64.7
		c-7.6,6.6-16.4,11.7-25.9,15.1C1900.2,338.1,1899.9,338.2,1899.5,338.2L1899.5,338.2z"/>
	<path class="st39" d="M1824,413.8c3.9,1.4,4.5,3.2,2.3,15.6c-1.4,7.5-21.9-5.5-15.2-6.8c6.8-1.3,4.2-0.6,4.2-0.6
		S1820.1,412.4,1824,413.8z"/>
	<path class="st40" d="M1822.2,425c-0.9-0.5-1.9-1-2.9-1.4s-2-0.7-3-1c-1-0.2-2.1-0.4-3.1-0.3c-1.1,0.1-2.1,0.3-3.1,0.7
		c0.9-0.6,1.9-1,3-1.2c1.1-0.1,2.2,0,3.3,0.2C1818.6,422.6,1820.5,423.6,1822.2,425L1822.2,425L1822.2,425z"/>
	<path class="st47" d="M1882.4,277.9c3.2-14.2,14.9-23.7,26.3-21.2c11.4,2.6,18.1,16.1,14.9,30.3c-3.2,14.2-15,23.7-26.4,21.2
		C1885.9,305.7,1879.2,292.2,1882.4,277.9z"/>
	<path class="st48" d="M1887,278.6c3.2-14.2,14.8-23.7,26-21.3c11.2,2.5,17.7,16,14.5,30.3s-14.8,23.8-26,21.3
		C1890.4,306.4,1883.8,292.8,1887,278.6L1887,278.6z"/>
	<path class="st39" d="M1955.3,244c3.5,1.9,6.3,5,7.7,8.7c1.3-4.7,2.4-9.4,3.2-14.2c2.2-9.2,7.2-7.7,5.9,1.2
		c-0.7,3.4-1.8,6.8-3.1,10c2.8-3.6,5.6-7.4,8.2-11.1c4.4-5,6.1-2.5,5.6,1.1c-2.3,5.8-6.2,10.9-11.2,14.7c3.8-2.8,8-5.2,12.3-7.1
		c3.6-0.4,2.4,2.8,0.8,4.3c-5.6,5.5-13.1,8.6-20.9,8.6c-0.5,0.2-1.1,0.1-1.5-0.3c-0.1-0.1-0.2-0.2-0.3-0.4c-0.1-0.2-0.2-0.4-0.2-0.6
		c-2-3.5-8-9.3-9.5-12.8C1952,244.2,1954,243.5,1955.3,244L1955.3,244z"/>
	<path class="st49" d="M1721.8,613c-2.1,0-3.8-1.6-3.8-3.7c0-0.7,0.2-1.5,0.6-2.1c4.9-6.3,6.2-14.7,3.4-22.2
		c-3.9-7.5-10.9-12.8-19.1-14.7c-2.1-0.4-3.4-2.3-3.1-4.4s2.3-3.5,4.4-3.1c10.7,2.3,19.8,9.3,24.8,19.1c4,8.9,2.7,18.7-3.9,29.3
		C1724.3,612.3,1723.1,613,1721.8,613L1721.8,613z"/>
	<path class="st49" d="M1615.6,605.7c-1.5,0-2.8-0.9-3.4-2.2c-6.3-14.2-8.6-20.5,0.5-35.1c7.2-10.7,19-17.5,31.9-18.4
		c2.1-0.1,3.8,1.5,3.8,3.6c0.1,2-1.5,3.8-3.6,3.8c-10.4,0.9-19.9,6.3-25.9,14.9c-7.1,11.3-5.9,14.9,0,28.1c0.8,1.9,0,4.1-1.9,4.9
		C1616.6,605.6,1616.1,605.7,1615.6,605.7L1615.6,605.7L1615.6,605.7z"/>
	<path class="st49" d="M1619.3,601.6c2.5,6.3-27,19.2-30.2,11.7C1584,601.1,1615.7,592.5,1619.3,601.6z"/>
	<path class="st49" d="M1717.6,611.3c0,0,0,11.2,3.8,14.9c5.3,3.7,12.4,3.7,17.7,0c3.2-3.7-4.4-8.7-4.4-8.7S1720.1,597,1717.6,611.3
		L1717.6,611.3z"/>
	<path class="st50" d="M1724.5,619c1.1-0.9,2.4-1.5,3.8-1.9c1.4-0.5,2.9-0.6,4.3-0.4c0.7,0.1,1.4,0.3,2.1,0.6s1.3,0.7,1.9,1.2
		c1.1,1,1.9,2.2,2.4,3.5c-0.8-1.1-1.8-2.1-2.9-2.9c-1.1-0.8-2.3-1.2-3.6-1.4c-1.3-0.2-2.7-0.1-4,0.2
		C1727.1,618.1,1725.8,618.5,1724.5,619L1724.5,619z"/>
	<path class="st49" d="M1591.7,492.3c-1.7,0-3.2-1.2-3.6-2.9c-2.3-10-28.5-67.9-45.4-87.9c-1.3-1.6-1.1-3.9,0.4-5.3
		c1.6-1.3,3.9-1.1,5.2,0.4c18,21.2,44.5,80.4,47,91.1c0.5,2-0.8,4-2.8,4.5C1592.2,492.3,1591.9,492.3,1591.7,492.3L1591.7,492.3z"/>
	<path class="st49" d="M1742.1,519.8c-2.1,0-3.7-1.7-3.7-3.7c0-0.4,0-0.7,0.2-1c4.5-15.5,22.5-33,43.3-53.3
		c7.8-7.5,15.8-15.3,23.6-23.5c1.4-1.5,3.8-1.5,5.3-0.1s1.5,3.8,0.1,5.3c-7.9,8.3-16,16.1-23.8,23.7c-20.1,19.5-37.4,36.4-41.4,50
		C1745.2,518.7,1743.7,519.8,1742.1,519.8L1742.1,519.8z"/>
	<path class="st51" d="M1580,389.3c0,0-9.4,4.5-14.1,1.2c-4.1-2.8-5.4-8.1-3.2-12.5c-3.6-1.1-6-4.4-6-8.2c-0.7-7.1,6.5-8.8,11.4-7.9
		c-4.1-3.8-5-9.9-2.2-14.7c3.7-7.2,12.4-10.1,19.6-6.4c0.5,0.3,1,0.5,1.5,0.8c0,0,5.1-15.8,15.1-6.7c0,0-5.3-8.3,7-11.4
		c-0.2-7.6,5.6-14,13.1-14.6c8-0.6,15.4,4.1,18.4,11.5c0.6-3.6,2.9-6.7,6.2-8.4c5.1-2.1,11.2,4,11.2,4c-0.9-3.2,0.9-6.5,4.1-7.4
		c1.2-0.3,2.4-0.3,3.6,0.1c2.6-5.6,8.9-8.6,14.9-7.2c7.7,1.8,12.9,9.1,12,17c2.2-2.9,5.7-4.6,9.4-4.7c6.2,0.5,10.1,3.8,10.1,9.6
		c2.9-5.4,9.6-7.3,15-4.4c1.1,0.6,2.1,1.4,3,2.4c5.4-2.9,11.7-3.4,17.5-1.2c6.2,3.6,8.2,11.5,4.7,17.6c-0.7,1.2-1.6,2.3-2.7,3.2
		c3-1.3,6.4-1.4,9.5-0.5c5.2,1.7,5.8,9.6,4.2,14.4c0,0,10.8-11.4,17.5,3.1c5.8-0.2,10.8,4.2,11.2,10c0.8,5.5-1.8,10.8-6.4,13.8
		c0,0,8.4,0.3,10.5,6.8c2.3,7.2-6.3,11.1-6.3,11.1c-1.2,5.1-6.3,8.3-11.5,7.1c-1.5-0.4-2.9-1.1-4.1-2.1
		C1761.9,396.6,1702.4,429.7,1580,389.3"/>
	<path class="st52" d="M1740.2,379.2c-3.6-7.6-12.3-11.4-20.2-8.7c11.8-0.4,17.3,8.6,20.1,18.9c3.1-8.4,6.4-19.5,17.7-15.4
		C1751,368.3,1743.9,372.7,1740.2,379.2L1740.2,379.2z"/>
	<path class="st52" d="M1605.7,357.8c-5.8-6.6-15.6-7.6-22.6-2.4c11.5-4,19.6,2.7,25.3,12.1c0.7-9.3,1.1-21.2,13.4-20.7
		C1613.3,343.4,1607.5,350.2,1605.7,357.8L1605.7,357.8z"/>
	<path class="st52" d="M1645,360.8c-4.7-0.8-9.3,2-10.6,6.6c-3.5-2.3-7.8-3.2-12-2.3c5.7,0.7,10.8,4,13.8,8.9
		c0.3-1.8,0.8-3.6,1.3-5.3c1.9-4.7,7.6-6.2,10.3-1.4c2.5,4.5,2.4,9.9-0.1,14.3C1654.1,376.2,1653.7,363.5,1645,360.8L1645,360.8z"/>
	<path class="st52" d="M1736.7,352.4c8.3-6.3,4.3-25.4-7.9-20.1c-2,1.1-3.6,2.8-4.5,4.8c-4.4-6-12.8-7.3-18.8-2.9
		c-0.4,0.3-0.9,0.7-1.3,1.1c11.3-5.9,17.9,0.9,21.3,11.5C1727.4,325.2,1744.5,337.1,1736.7,352.4L1736.7,352.4z"/>
	<path class="st52" d="M1634.7,326.9l0.8,3c2.5-4.9,8.5-6.8,13.4-4.3c0.2,0.1,0.5,0.3,0.7,0.4c-3-3.9-8.5-4.8-12.6-2
		c-5.7-12.2-26.8-2.7-14.3,14.4c-1.8-4.4-1.7-9.3,0.3-13.7c2.4-2.9,6.7-3.3,9.6-0.9C1633.6,324.7,1634.3,325.8,1634.7,326.9
		L1634.7,326.9z"/>
	<path class="st52" d="M1687.2,315.4c-3.8-3.6-9.8-3.4-13.4,0.5c-3.6,3.8-3.4,9.9,0.5,13.4c0.4,0.4,0.8,0.7,1.2,1
		C1672.5,320.5,1676.5,313.9,1687.2,315.4z"/>
	<path class="st52" d="M1579.9,374.9c8-9.5,13.8-3.2,17.6,5.3C1600.1,367.5,1582.9,359.6,1579.9,374.9z"/>
	<path class="st52" d="M1764.9,388.7c2.9-0.9,7.7-1.5,9.7,1.7c1.9,3.8,2.6,8,2,12.2C1784.7,394,1775.1,377.9,1764.9,388.7z"/>
	<path class="st52" d="M1769.7,373.8c4.4-11.9-11.1-21.9-15.9-7.4c2.3-1.9,6.4-5,9.7-3C1766.7,364.8,1769,371.6,1769.7,373.8
		L1769.7,373.8z"/>
	<path class="st52" d="M1684.9,385c-3.3-4.7-9.1-7.1-14.8-6.1c10,0.9,14.6,12.8,19.2,20.3c0-4-1.5-11.5,0.9-15.1
		c3.8-7,12.5-3.2,16.6,1.7C1702.6,372.8,1687.5,374.3,1684.9,385L1684.9,385z"/>
	<path class="st52" d="M1698.6,349.6c-3.7-2-8.2-1.3-11.1,1.7c-1.5-7.7-6.2-16-15-14.2c-8.1,1.4-10.9,10.3-9.4,17.7
		c-3.2-2.6-7.9-2.2-10.6,1.1c-0.4,0.5-0.7,1-1,1.5c4.5-5.3,9.7-2.8,13.2,2l1.9-1.5c-2.4-6.7-0.7-17.7,8.3-17.4
		c9,1.5,9.4,14.3,10.4,21.5c1-3.5,2.7-6.8,5-9.6c1.7-1.4,3.9-1.9,6-1.4c5.1,1.3,6.4,7.3,6.6,11.9
		C1704.7,358.1,1702.8,352.7,1698.6,349.6z"/>
	<path class="st50" d="M1576.1,389.1l14.1,167.4c42,16.3,87.5,23,145.9,15l40.9-165.7c-3.4-6.8-10.1-11.3-17.6-12.1
		c-8.6-0.7-17,2.5-22.9,8.7c-3.3-8.1-26.3-19.8-40-3.3c-6.3-13.5-33.2-13.5-40.4-3.4c-5.5-8.9-22.3-19.3-40-3.3
		c-6.3-11.6-20.9-15.9-32.5-9.6C1580.6,384.4,1578.1,386.5,1576.1,389.1"/>
	<path class="st53" d="M1616,392.5l2.4,173.5c9.3,2.5,18.8,4.6,28.4,6.1l9.3-176.4C1646.8,378,1621.3,382.9,1616,392.5L1616,392.5z"
		/>
	<path class="st53" d="M1677.1,574.7c10,0.6,20,0.5,29.9-0.2c0,0,29.6-172,29.6-172.2c-3.6-12.7-31.8-17.9-39.8-3.5L1677.1,574.7z"
		/>
	<path class="st27" d="M1661.6,452.6c-0.3,3.1-3.1,5.3-6.2,5c-3-0.3-5.1-2.9-5-5.9l2.7-32.9c0.4-3.1,3.1-5.3,6.2-5
		c3,0.3,5.2,2.9,5,5.9L1661.6,452.6z"/>
	<path class="st27" d="M1697.5,455.6c-0.3,3.1-3.1,5.3-6.2,5c-3-0.3-5.2-2.9-5-5.9l2.7-32.9c0.3-3.1,3.1-5.3,6.2-5
		c3,0.3,5.2,2.9,5,5.9L1697.5,455.6z"/>
	<path class="st27" d="M1666.1,398.9c0.8,1.9-2.5,5-7.3,6.9s-9.3,2-10,0.1c-0.8-1.9,2.5-5,7.3-6.9
		C1660.8,397.1,1665.3,397,1666.1,398.9"/>
	<path class="st27" d="M1690.4,401c-0.9,1.8,2,5.2,6.6,7.6s9.1,2.8,10,1s-2-5.2-6.6-7.6C1695.8,399.7,1691.3,399.2,1690.4,401z"/>
	<path class="st27" d="M1627.8,450.3c3.3,9.9,7.6,19.5,12.9,28.6c9.7,16.6,24.3,33.5,39.5,32.6c26.6-1.5,40.3-59.8,41.2-70.5
		C1707.4,487.3,1638.5,470.8,1627.8,450.3"/>
	<path class="st49" d="M1662.5,505.2c4.8,4.3,11.1,6.7,17.6,6.6c7.8-1.1,14.8-5.5,19-12.2c-3-7.6-10.6-12.4-18.7-11.7
		C1670.7,487.8,1662.7,495.5,1662.5,505.2"/>
	<path class="st49" d="M1825.7,438.7c-3.6-1-7.4-1-11-0.1c5.1-7.3,13.8-2.9,14.7-7.8c0.5-3.1-2.2-5.1-8.2-3.1c-5,1.9-9.3,5.4-12,10
		c0,0.1-0.1,0.2-0.1,0.3c-7.7,5.5-4.9,9.8-2,10.1c0.6,0.4,2.8-1.1,3.5-0.6c3,1.8,5.6,4.3,7.4,7.3c2.3,4,6.4,3.3,6.1-0.3
		c-0.5-6.6-8.8-9.9-8.8-9.9c3.4-0.4,6.9,0.4,9.9,2.2c3.6,2,6.3,3.2,7.7,1.5C1835.8,444.7,1830.5,440.1,1825.7,438.7L1825.7,438.7z"
		/>
	<path class="st50" d="M1804.8,436.1c0,0,4.9-10.6,10-6.5c3.3,3.2-4.6,6.3-5.5,8.1c-0.9,1.8,1.7,4.9-2.4,7.2
		C1802.9,447.2,1801.4,441.3,1804.8,436.1z"/>
	<path class="st49" d="M1804.3,436.4c0,0,5.7-9.5,9.8-6.2c2.7,2.4-4.5,5.6-5.4,7.4s2.3,5.9-1.8,8.1
		C1802.7,448.1,1800.9,441.6,1804.3,436.4L1804.3,436.4z"/>
	<path class="st49" d="M1548.5,401.7c-0.7-8-4.3-15.5-10.3-20.9c-4.6-4.3-8-3.5-8.7-0.5c-1.2,4.8,9,6.2,10.7,15
		c-2.8-3.2-6.5-5.4-10.6-6.3c-4.9-0.7-11.7,1.4-10.5,5.8c0.5,2.1,3.5,2.1,7.7,1.8c3.4-0.4,6.9,0.3,9.9,2.1c0,0-9-0.4-12.1,5.4
		c-1.7,3.1,1.7,5.5,5.5,2.8c3.7-2,7.8-3.3,12-3.8C1549.4,408.5,1548.5,401.8,1548.5,401.7L1548.5,401.7z"/>
	<path class="st50" d="M1549.1,394.5c0,0-2.7-13.1-9.2-10.1c-4.4,2.6,3.4,8.4,3.9,10.6s-4,4.5-0.1,8.2
		C1547.6,406.9,1551.5,401.2,1549.1,394.5L1549.1,394.5z"/>
	<path class="st49" d="M1549.2,395.7c0,0-3.3-12.9-8.5-10.3c-3.5,1.8,3.5,7.5,4,9.7s-4.1,4.1-0.3,7.8
		C1548.3,406.6,1551.6,402.4,1549.2,395.7z"/>
	<path class="st2" d="M1782.6,563c11.3-31.7,45.2-26.4,45.6-26.3l-1.2,7c-1.2-0.2-28.5-4.3-37.8,21.8L1782.6,563L1782.6,563z"/>
	<path class="st2" d="M1789.8,563.6c0,0-23.8-29.4-27.7-15C1758.1,563.1,1789.1,575,1789.8,563.6z"/>
	<path class="st2" d="M1928.9,618.1l-4.9-4.3c19.8-15.2,4.7-34.6,4.1-35.4l5.8-3C1934.1,575.6,1953,599.8,1928.9,618.1"/>
	<path class="st2" d="M1788.7,487.6c-5-0.3-9.9-1.8-14.3-4.2c-11.2-6-20.2-15.3-25.9-26.6c-8.8-18.4-12.2-38.9-9.8-59.1
		c0.2-2,2-3.5,4.1-3.4c2,0.2,3.5,1.9,3.4,3.9c-1.4,19.2-0.3,54.3,24,73.6c5.3,4.9,12.2,7.8,19.4,8.3c1.7-1.1,4-0.7,5.2,1.1
		c1,1.6,0.7,3.7-0.7,4.9C1792.4,487.1,1790.6,487.7,1788.7,487.6L1788.7,487.6z"/>
	<path class="st2" d="M2010.6,416.2l-1.8-7.2c19.5-4.9,43-16.6,44.2-44.6c0-18.4-6.8-36.2-19.2-50l5.7-4.8
		c13.5,15.1,21,34.7,20.9,55c-0.3,13.2-6,25.8-15.9,34.6C2034.8,407.7,2023.1,413.5,2010.6,416.2L2010.6,416.2z"/>
	<path class="st25" d="M1782.2,476c18.1,74,92.7,119.4,166.7,101.3c74-18.1,119.3-92.8,101.3-166.8c-18-73.7-92.2-119.1-166-101.5
		c-74.1,17.7-119.8,92.1-102.1,166.2C1782.1,475.4,1782.2,475.7,1782.2,476"/>
	<path class="st2" d="M2017,348.7c2.8,4.1,4.1,9.2,3.5,14.2c-1.6,7.7,20.8,21.1,13.6,39.1c-5.7,14.2-11.3,15.1-7.2,30.4
		c4.1,15.3,13.1,14,15.1,15.2s0.4,8.9,4,13.1c2.5,2.3,4.5,5,5.9,8C2059.9,425.4,2046.9,380.9,2017,348.7"/>
	<path class="st2" d="M1911,305.4c-27.8,1-54.7,10.4-77.1,27c2-0.3,3.9-0.8,5.8-1.5c8.6-3.2,10.7-7.2,14.3-7.4c3.6-0.2,9,3.8,13.2,2
		c3.1-1.4,15.3,0.7,11.2,7.4c-3.8,3.2-8.4,5.4-13.3,6.2c5.2,2.3,11.1,2.5,16.5,0.5c10.6-3,2-8.1,14.3-12.3c12.3-4.2,5.7-10.8,3-12.5
		C1896.2,313.2,1910.7,311.7,1911,305.4"/>
	<path class="st8" d="M1888.3,377.6c1.3,2.6,0.2,5.7-2.3,7c-2.6,1.3-5.7,0.2-7-2.3c-0.4-0.7-0.5-1.5-0.6-2.3l-5.6-23.5
		c-1.3-2.6-0.2-5.7,2.3-7c2.6-1.3,5.7-0.2,7,2.3c0.4,0.7,0.5,1.5,0.5,2.3L1888.3,377.6z"/>
	<path class="st8" d="M1922.1,369.5c1.3,2.6,0.2,5.7-2.3,7c-2.6,1.3-5.7,0.2-7-2.3c-0.3-0.7-0.5-1.5-0.5-2.3l-5.6-23.5
		c-1.3-2.6-0.2-5.7,2.4-7s5.7-0.2,7,2.4c0.3,0.7,0.5,1.5,0.5,2.2L1922.1,369.5z"/>
	<path class="st2" d="M1863.4,390.8c0,0-18.2,1-24.8,8.4c-6.7,7.4-14,24.5-27.2,14.1s-7.3-52,32.9-38.8
		C1849.1,381.6,1855.7,387.1,1863.4,390.8z"/>
	<path class="st54" d="M1850.4,382.7c-1.8-0.5-3.7-0.8-5.5-1c-4.1-0.5-8.3-0.3-12.4,0.4c-4.2,0.8-8,2.8-11,5.8
		c-1.2,1.4-2.2,3.1-3,4.8c0.9-1.6,2.1-3.1,3.4-4.4c3-2.8,6.8-4.6,10.8-5.2c4-0.9,8.1-1.1,12.2-0.9
		C1848.1,382.4,1850.4,382.7,1850.4,382.7"/>
	<path class="st8" d="M1929.7,375.6c-7.9,16-25.7,22.5-43.6,20.4c-21.4-2.6-39.6-17-47-37.2c3.5,21.6,24.9,38.8,45.6,41
		c7.5,1.2,15.1,0.7,22.4-1.6C1917.8,394.6,1926.2,386.2,1929.7,375.6"/>
	<path class="st8" d="M1877.1,327c1.5,1.6-0.5,5.7-4.3,9.2s-8.1,5.1-9.5,3.5c-1.5-1.6,0.5-5.7,4.3-9.2S1875.6,325.5,1877.1,327"/>
	<path class="st8" d="M1913.7,329c-1,1.6-5.1,1.3-9.1-0.9c-4-2.1-6.5-5.1-5.5-6.8c1-1.6,5.1-1.3,9.1,0.9
		C1912.3,324.4,1914.8,327.4,1913.7,329z"/>
	<path class="st2" d="M1925.3,613.2c3.6,2.2,6.7,5.1,9.1,8.6c10.2-1.3,12.3,7.4,2.4,7.5c-3.2,0.1-6.3,0-9.4-0.4
		C1919,625,1920,614.9,1925.3,613.2"/>
	<path class="st2" d="M1743.3,401.5c-5.2-4-11.8-24-5.5-31.3c5.6-2.3,4.8,17.7,6.1,24.3c0,0,0.1-21.1,6.2-22.2
		c6.1-1.2,3.1,16.4-1.9,25c2.9,2.8,13.4-7.6,14.4-3.1C1764,400.6,1752.4,404.2,1743.3,401.5z"/>
	<path class="st2" d="M1729.1,376.3c-0.2,1.1-0.3,2.3-0.2,3.4c0.1,1.1,0.2,2.2,0.5,3.3c0.5,2.2,1.2,4.4,2,6.5
		c0.4,1.1,0.9,2.2,1.5,3.2c0.6,1.1,1.2,2.1,2,3.1c0.8,1.1,1.8,2,2.9,2.8c1.2,0.9,2.6,1.5,4.1,1.7c1.4,0.2,2.7-0.8,2.9-2.2
		c0.2-1.2-0.5-2.4-1.6-2.8l-0.3-0.1c-0.6-0.2-1.2-0.6-1.6-1.1c-0.6-0.6-1.1-1.2-1.5-1.8c-1-1.6-1.8-3.2-2.4-5
		c-0.7-1.9-1.2-3.8-1.7-5.7c-0.2-1-0.5-1.9-0.8-2.9s-0.7-1.9-1.2-2.9l-0.1-0.2c-0.6-1.2-2.1-1.6-3.2-1
		C1729.7,375,1729.3,375.6,1729.1,376.3L1729.1,376.3z"/>
	<path class="st2" d="M2037.4,316.9c2.4-6.1-2.6-26.6-11.7-29.5c-6,1,5.2,17.5,7.6,23.8c0,0-11.1-17.9-16.9-15.7
		c-5.8,2.2,5.9,15.6,14.7,20.3c-1,3.9-15.4,0.5-13.9,4.9C2019.3,326.9,2031.1,323.9,2037.4,316.9L2037.4,316.9z"/>
	<path class="st2" d="M2036.3,288c0.8,0.9,1.4,1.8,1.9,2.8s1,2,1.3,3.1c0.7,2.1,1.3,4.3,1.7,6.5c0.2,1.1,0.3,2.3,0.4,3.5
		s0.1,2.5-0.1,3.7c-0.1,1.3-0.5,2.6-1,3.9c-0.6,1.4-1.5,2.6-2.6,3.6c-1.1,0.9-2.7,0.8-3.6-0.3c-0.8-0.9-0.8-2.3-0.1-3.2l0.2-0.2
		c0.4-0.5,0.7-1.1,0.8-1.7c0.2-0.8,0.3-1.6,0.3-2.3c0-1.8-0.2-3.7-0.6-5.5c-0.4-1.9-0.9-3.8-1.5-5.7c-0.3-1-0.6-1.9-0.8-2.9
		c-0.2-1-0.4-2-0.5-3.1V290c-0.1-1.3,0.9-2.4,2.2-2.5C2035.1,287.2,2035.8,287.4,2036.3,288L2036.3,288z"/>
	<path class="st25" d="M2035.8,287.5c-0.5-0.1-1-0.1-1.6-0.1c-0.5,0-0.9,0.3-1.3,0.6c-0.3,0.4-0.4,0.9-0.4,1.4s0,1,0.1,1.5
		c0.2,1,0.4,2,0.7,3c0.3,1,0.6,2,1,3c0.7,2,1.4,3.9,2.1,5.9c0.3,1,0.6,2,0.8,3.1c0.1,0.5,0.2,1.1,0.2,1.6c0.1,0.5-0.1,1.1-0.4,1.5
		c0.2-0.5,0.3-1,0.2-1.5c-0.1-0.5-0.2-1-0.4-1.5c-0.3-1-0.7-2-1-3c-0.7-1.9-1.5-3.9-2.2-5.9c-0.8-2-1.3-4.1-1.6-6.2
		c-0.1-0.5-0.1-1.1,0-1.6c0.1-0.6,0.3-1.1,0.7-1.6c0.4-0.4,1-0.6,1.6-0.6C2034.7,287.2,2035.2,287.3,2035.8,287.5L2035.8,287.5z"/>
	<path class="st39" d="M1752.3,311.2c-3.6,0.9-7.4,0.5-10.8-1.2c2,4.1,4.3,8,6.7,11.8c4.3,7.7-0.1,9.8-4.8,2.9
		c-1.7-2.8-3-5.8-4.1-8.8c0.3,4.3,0.8,8.6,1.3,12.8c0.1,6.2-2.7,5.5-4.5,2.8c-2-5.5-2.6-11.4-1.5-17.1c-0.9,4.3-2.2,8.6-4,12.6
		c-2.2,2.5-3.4-0.4-3.2-2.4c0.4-7.3,3.6-14.1,9-19c0.2-0.5,0.7-0.8,1.2-0.7c0.1,0,0.3,0,0.4,0.1c0.2,0.1,0.4,0.2,0.5,0.3
		c3.6,1.2,11.3,1.4,14.6,2.9C1754.4,309,1753.5,310.7,1752.3,311.2L1752.3,311.2z"/>
</g>
</svg>
